<svg xmlns="http://www.w3.org/2000/svg" width="45" height="40" viewBox="0 0 45 40" fill="none">
  <path d="M22.396 13.7055V21.7055M22.396 29.7055H22.416M18.976 3.42549L2.03604 31.7055C1.68677 32.3103 1.50197 32.9961 1.50002 33.6945C1.49806 34.393 1.67902 35.0797 2.02489 35.6865C2.37076 36.2933 2.86949 36.799 3.47145 37.1532C4.07342 37.5074 4.75764 37.6978 5.45604 37.7055H39.336C40.0344 37.6978 40.7187 37.5074 41.3206 37.1532C41.9226 36.799 42.4213 36.2933 42.7672 35.6865C43.1131 35.0797 43.294 34.393 43.2921 33.6945C43.2901 32.9961 43.1053 32.3103 42.756 31.7055L25.816 3.42549C25.4595 2.8377 24.9575 2.35173 24.3584 2.01446C23.7594 1.67718 23.0835 1.5 22.396 1.5C21.7086 1.5 21.0327 1.67718 20.4336 2.01446C19.8346 2.35173 19.3326 2.8377 18.976 3.42549Z" stroke="currentColor" stroke-width="3" stroke-linecap="round" stroke-linejoin="round"/>
</svg>

