<svg xmlns="http://www.w3.org/2000/svg" width="20" height="20" viewBox="0 0 20 20" fill="none">
  <path fill-rule="evenodd" clip-rule="evenodd" d="M10.3976 2.11005C10.4313 2.03387 10.483 1.96704 10.5483 1.91533C10.6137 1.86363 10.6906 1.8286 10.7725 1.81327C10.8544 1.79795 10.9387 1.80279 11.0183 1.82737C11.0979 1.85196 11.1703 1.89555 11.2293 1.95438L12.3782 3.10316L11.078 5.16146C10.9579 5.36313 10.9213 5.6037 10.9759 5.83197C11.0305 6.06023 11.1721 6.25817 11.3704 6.38364C11.5688 6.50912 11.8083 6.55222 12.038 6.50379C12.2677 6.45535 12.4694 6.31919 12.6002 6.1243L13.6842 4.4105L15.3563 6.0825L13.6423 7.16642C13.4474 7.29721 13.3113 7.49889 13.2628 7.72855C13.2144 7.95821 13.2575 8.1977 13.383 8.39606C13.5085 8.59441 13.7064 8.73597 13.9347 8.79059C14.163 8.84521 14.4036 8.80859 14.6053 8.68852L16.6622 7.38839L18.0475 8.77356C18.1063 8.83253 18.1499 8.90494 18.1745 8.98453C18.1991 9.06412 18.2039 9.1485 18.1886 9.23038C18.1733 9.31226 18.1383 9.38918 18.0865 9.45449C18.0348 9.5198 17.968 9.57154 17.8918 9.60524L12.4762 11.9951L8.00762 7.52532L10.3976 2.11005ZM17.4464 5.6227L19.3218 7.49794C19.5878 7.76393 19.7851 8.09075 19.8964 8.45012C20.0077 8.80949 20.0297 9.19057 19.9606 9.56037C19.8914 9.93017 19.7332 10.2776 19.4996 10.5724C19.2659 10.8673 18.964 11.1008 18.6198 11.2527L12.6391 13.8919C12.5599 13.9274 12.4758 13.9507 12.3897 13.9611L7.66599 18.6845C6.82397 19.5267 5.68187 19.9999 4.49093 20C3.3 20.0001 2.15779 19.5272 1.31558 18.6852C0.473362 17.8433 0.000135193 16.7012 2.89625e-08 15.5104C-0.000135136 14.3195 0.472832 13.1774 1.31485 12.3352L6.04001 7.61037C6.05044 7.52425 6.07376 7.44019 6.1092 7.36101L8.74854 1.38215C8.90023 1.0376 9.13368 0.735245 9.42863 0.501289C9.72359 0.267334 10.0712 0.108842 10.4412 0.0395499C10.8113 -0.0297419 11.1926 -0.00774175 11.5523 0.103643C11.9119 0.215028 12.2389 0.412437 12.505 0.678757L14.1526 2.32626L14.1771 2.35076L17.406 5.57946L17.4464 5.6227Z" fill="#374151"/>
</svg>
