<svg xmlns="http://www.w3.org/2000/svg" width="19" height="15" viewBox="0 0 19 15" fill="none">
  <path d="M17.4167 12.6019C17.4167 12.9948 17.257 13.3716 16.9729 13.6494C16.6887 13.9272 16.3034 14.0833 15.9015 14.0833H2.26515C1.86331 14.0833 1.47792 13.9272 1.19378 13.6494C0.909632 13.3716 0.75 12.9948 0.75 12.6019V4.4537C0.75 4.06079 0.909632 3.68397 1.19378 3.40614C1.47792 3.12831 1.86331 2.97222 2.26515 2.97222H5.29545L6.81061 0.75H11.3561L12.8712 2.97222H15.9015C16.3034 2.97222 16.6887 3.12831 16.9729 3.40614C17.257 3.68397 17.4167 4.06079 17.4167 4.4537V12.6019Z" stroke="currentColor" stroke-width="1.5" stroke-linecap="round" stroke-linejoin="round"/>
  <path d="M9.08333 11.1204C10.7569 11.1204 12.1136 9.79381 12.1136 8.15741C12.1136 6.52101 10.7569 5.19444 9.08333 5.19444C7.40974 5.19444 6.05303 6.52101 6.05303 8.15741C6.05303 9.79381 7.40974 11.1204 9.08333 11.1204Z" stroke="currentColor" stroke-width="1.5" stroke-linecap="round" stroke-linejoin="round"/>
</svg>

