<svg xmlns="http://www.w3.org/2000/svg" width="29" height="24" viewBox="0 0 29 24" fill="none">
  <path d="M27.6667 19.963C27.6667 20.5916 27.4113 21.1945 26.9566 21.6391C26.502 22.0836 25.8854 22.3333 25.2424 22.3333H3.42424C2.78129 22.3333 2.16468 22.0836 1.71004 21.6391C1.25541 21.1945 1 20.5916 1 19.963V6.92593C1 6.29726 1.25541 5.69435 1.71004 5.24982C2.16468 4.80529 2.78129 4.55556 3.42424 4.55556H8.27273L10.697 1H17.9697L20.3939 4.55556H25.2424C25.8854 4.55556 26.502 4.80529 26.9566 5.24982C27.4113 5.69435 27.6667 6.29726 27.6667 6.92593V19.963Z" stroke="currentColor" stroke-width="2" stroke-linecap="round" stroke-linejoin="round"/>
  <path d="M14.3333 17.5926C17.0111 17.5926 19.1818 15.4701 19.1818 12.8519C19.1818 10.2336 17.0111 8.11111 14.3333 8.11111C11.6556 8.11111 9.48485 10.2336 9.48485 12.8519C9.48485 15.4701 11.6556 17.5926 14.3333 17.5926Z" stroke="currentColor" stroke-width="2" stroke-linecap="round" stroke-linejoin="round"/>
</svg>

