<svg xmlns="http://www.w3.org/2000/svg" width="20" height="20" viewBox="0 0 20 20" fill="none">
  <path d="M10 10.8333C10.4602 10.8333 10.8333 10.4602 10.8333 10C10.8333 9.53976 10.4602 9.16667 10 9.16667C9.53976 9.16667 9.16667 9.53976 9.16667 10C9.16667 10.4602 9.53976 10.8333 10 10.8333Z" fill="currentColor"/>
  <path d="M10 5.83333C10.4602 5.83333 10.8333 5.46024 10.8333 5C10.8333 4.53976 10.4602 4.16667 10 4.16667C9.53976 4.16667 9.16667 4.53976 9.16667 5C9.16667 5.46024 9.53976 5.83333 10 5.83333Z" fill="currentColor"/>
  <path d="M10 15.8333C10.4602 15.8333 10.8333 15.4602 10.8333 15C10.8333 14.5398 10.4602 14.1667 10 14.1667C9.53976 14.1667 9.16667 14.5398 9.16667 15C9.16667 15.4602 9.53976 15.8333 10 15.8333Z" fill="currentColor"/>
</svg>

