<svg xmlns="http://www.w3.org/2000/svg" width="23" height="21" viewBox="0 0 23 21" fill="none">
  <path d="M20.3807 2.65027C19.8676 2.12709 19.2583 1.71206 18.5878 1.4289C17.9172 1.14574 17.1985 1 16.4727 1C15.7468 1 15.0281 1.14574 14.3576 1.4289C13.687 1.71206 13.0778 2.12709 12.5646 2.65027L11.4997 3.73555L10.4348 2.65027C9.39834 1.59397 7.99258 1.00055 6.52679 1.00055C5.06099 1.00055 3.65523 1.59397 2.61876 2.65027C1.58229 3.70657 1 5.13922 1 6.63305C1 8.12688 1.58229 9.55953 2.61876 10.6158L11.4997 19.6667L20.3807 10.6158C20.8941 10.0929 21.3013 9.472 21.5791 8.78862C21.857 8.10524 22 7.37277 22 6.63305C22 5.89333 21.857 5.16086 21.5791 4.47748C21.3013 3.7941 20.8941 3.17321 20.3807 2.65027Z" fill="black" fill-opacity="0.1" stroke="white" stroke-width="2" stroke-linecap="round" stroke-linejoin="round"/>
</svg>

