<svg xmlns="http://www.w3.org/2000/svg" width="17" height="15" viewBox="0 0 17 15" fill="none">
  <path d="M14.5434 1.87896C14.1769 1.50526 13.7417 1.20881 13.2627 1.00655C12.7838 0.804297 12.2704 0.700195 11.7519 0.700195C11.2335 0.700195 10.7201 0.804297 10.2411 1.00655C9.76216 1.20881 9.32699 1.50526 8.96047 1.87896L8.19982 2.65416L7.43917 1.87896C6.69883 1.12446 5.69472 0.700586 4.64772 0.700586C3.60072 0.700586 2.59661 1.12446 1.85627 1.87896C1.11593 2.63346 0.700012 3.65678 0.700012 4.7238C0.700012 5.79082 1.11593 6.81414 1.85627 7.56864L8.19982 14.0335L14.5434 7.56864C14.9101 7.19512 15.2009 6.75162 15.3994 6.26349C15.5979 5.77537 15.7 5.25217 15.7 4.7238C15.7 4.19543 15.5979 3.67224 15.3994 3.18411C15.2009 2.69598 14.9101 2.25249 14.5434 1.87896Z" stroke="currentColor" stroke-width="1.4" stroke-linecap="round" stroke-linejoin="round"/>
</svg>

