<svg xmlns="http://www.w3.org/2000/svg" width="24" height="24" viewBox="0 0 24 24" fill="none">
  <path d="M21 11.199H20.02C19.467 11.199 19.02 11.558 19.02 12C19.02 12.441 19.467 12.799 20.02 12.799H21C21.552 12.799 22 12.442 22 12C22 11.559 21.551 11.199 21 11.199ZM12 6.5C11.2771 6.49776 10.5609 6.63848 9.89259 6.91409C9.22428 7.1897 8.61708 7.59474 8.10591 8.10591C7.59474 8.61708 7.1897 9.22428 6.91409 9.89259C6.63848 10.5609 6.49776 11.2771 6.5 12C6.5 15.051 8.949 17.5 12 17.5C15.05 17.5 17.5 15.051 17.5 12C17.5 8.949 15.049 6.5 12 6.5ZM12 16C9.789 16 8 14.209 8 12C8 9.789 9.789 8 12 8C13.0609 8 14.0783 8.42143 14.8284 9.17157C15.5786 9.92172 16 10.9391 16 12C16 13.0609 15.5786 14.0783 14.8284 14.8284C14.0783 15.5786 13.0609 16 12 16ZM5 12C5 11.559 4.551 11.199 4 11.199H3C2.447 11.199 2 11.558 2 12C2 12.441 2.447 12.799 3 12.799H4C4.551 12.799 5 12.441 5 12ZM12 5C12.441 5 12.799 4.553 12.799 4V3C12.799 2.447 12.441 2 12 2C11.559 2 11.199 2.447 11.199 3V4C11.199 4.553 11.558 5 12 5ZM12 19C11.558 19 11.199 19.447 11.199 20V21C11.199 21.553 11.558 22 12 22C12.441 22 12.799 21.553 12.799 21V20C12.799 19.447 12.441 19 12 19ZM19.365 5.766C19.756 5.375 19.819 4.805 19.507 4.493C19.195 4.181 18.624 4.245 18.235 4.636L17.535 5.335C17.144 5.726 17.081 6.296 17.393 6.608C17.705 6.92 18.276 6.856 18.666 6.465L19.365 5.766ZM5.334 17.533L4.634 18.234C4.243 18.625 4.18 19.193 4.492 19.505C4.804 19.817 5.375 19.755 5.764 19.364L6.464 18.665C6.855 18.274 6.918 17.704 6.606 17.391C6.294 17.078 5.723 17.144 5.334 17.533ZM5.765 4.635C5.375 4.244 4.804 4.18 4.492 4.492C4.18 4.804 4.244 5.375 4.633 5.766L5.333 6.465C5.724 6.856 6.293 6.92 6.605 6.608C6.917 6.296 6.854 5.725 6.464 5.335L5.765 4.635ZM17.534 18.666L18.234 19.365C18.625 19.756 19.194 19.818 19.506 19.508C19.818 19.196 19.755 18.625 19.364 18.235L18.665 17.536C18.274 17.145 17.704 17.081 17.391 17.393C17.078 17.705 17.143 18.275 17.534 18.666Z" fill="#374151"/>
</svg>
