<svg xmlns="http://www.w3.org/2000/svg" width="28" height="28" viewBox="0 0 28 28" fill="none">
  <path d="M24 20.2222C24 20.6937 23.7893 21.1459 23.4142 21.4793C23.0391 21.8127 22.5304 22 22 22H6C5.46957 22 4.96086 21.8127 4.58579 21.4793C4.21071 21.1459 4 20.6937 4 20.2222V7.77778C4 7.30628 4.21071 6.8541 4.58579 6.5207C4.96086 6.1873 5.46957 6 6 6L9 6L11 8.66667L22 8.66667C22.5304 8.66667 23.0391 8.85397 23.4142 9.18737C23.7893 9.52076 24 9.97295 24 10.4444V20.2222Z" fill="currentColor" stroke="currentColor" stroke-width="1.4" stroke-linecap="round" stroke-linejoin="round"/>
</svg>
