<svg xmlns="http://www.w3.org/2000/svg" width="17" height="19" viewBox="0 0 17 19" fill="none">
  <path d="M13.25 5.75001C14.6307 5.75001 15.75 4.63072 15.75 3.25001C15.75 1.86929 14.6307 0.75 13.25 0.75C11.8693 0.75 10.75 1.86929 10.75 3.25001C10.75 4.63072 11.8693 5.75001 13.25 5.75001Z" stroke="currentColor" stroke-width="1.5" stroke-linecap="round" stroke-linejoin="round"/>
  <path d="M3.25001 11.584C4.63072 11.584 5.75001 10.4647 5.75001 9.08399C5.75001 7.70327 4.63072 6.58398 3.25001 6.58398C1.86929 6.58398 0.75 7.70327 0.75 9.08399C0.75 10.4647 1.86929 11.584 3.25001 11.584Z" stroke="currentColor" stroke-width="1.5" stroke-linecap="round" stroke-linejoin="round"/>
  <path d="M13.25 17.417C14.6307 17.417 15.75 16.2977 15.75 14.917C15.75 13.5363 14.6307 12.417 13.25 12.417C11.8693 12.417 10.75 13.5363 10.75 14.917C10.75 16.2977 11.8693 17.417 13.25 17.417Z" stroke="currentColor" stroke-width="1.5" stroke-linecap="round" stroke-linejoin="round"/>
  <path d="M5.40815 10.3418L11.0998 13.6585" stroke="currentColor" stroke-width="1.5" stroke-linecap="round" stroke-linejoin="round"/>
  <path d="M11.0915 4.50879L5.40815 7.82546" stroke="currentColor" stroke-width="1.5" stroke-linecap="round" stroke-linejoin="round"/>
</svg>

