<svg xmlns="http://www.w3.org/2000/svg" width="24" height="24" viewBox="0 0 24 24" fill="none">
  <g clip-path="url(#clip0_953_5394)">
    <path d="M5 5.8H11M9.28571 4V5.8C9.28571 9.7762 7.36657 13 5 13" stroke="currentColor" stroke-width="1.5" stroke-linecap="round" stroke-linejoin="round"/>
    <path d="M6 9C6 10.9491 8.5584 12.5527 11.8067 12.6364M12.0667 19L15.5333 10.8182L19 19M18.22 17.1818H12.8467" stroke="currentColor" stroke-width="1.5" stroke-linecap="round" stroke-linejoin="round"/>
    <path d="M22.2589 7.76731C21.2684 5.36226 19.4654 3.38106 17.164 2.16908C16.1405 1.63009 15.0473 1.25843 13.9251 1.05972M22.2589 7.76731L18.0206 6.93346M22.2589 7.76731L23.0982 3.50115M1.73716 16.2791C2.73424 18.6778 4.54053 20.6512 6.8419 21.8561C8.08158 22.5051 9.42267 22.909 10.7931 23.058M1.73716 16.2791L5.95609 17.1091M1.73716 16.2791L0.903312 20.5174" stroke="currentColor" stroke-width="1.5" stroke-linecap="round" stroke-linejoin="round"/>
  </g>
  <defs>
    <clipPath id="clip0_953_5394">
      <rect width="24" height="24" fill="white"/>
    </clipPath>
  </defs>
</svg>








