<svg xmlns="http://www.w3.org/2000/svg" width="20" height="20" viewBox="0 0 20 20" fill="none">
  <path d="M18.7002 18.7002V16.7002C18.7002 15.6393 18.2261 14.6219 17.3822 13.8718C16.5383 13.1216 15.3937 12.7002 14.2002 12.7002H5.2002C4.00672 12.7002 2.86213 13.1216 2.01821 13.8718C1.1743 14.6219 0.700195 15.6393 0.700195 16.7002V18.7002" fill="currentColor"/>
  <path d="M18.7002 18.7002V16.7002C18.7002 15.6393 18.2261 14.6219 17.3822 13.8718C16.5383 13.1216 15.3937 12.7002 14.2002 12.7002H5.2002C4.00672 12.7002 2.86213 13.1216 2.01821 13.8718C1.1743 14.6219 0.700195 15.6393 0.700195 16.7002V18.7002H18.7002Z" stroke="currentColor" stroke-width="1.4" stroke-linecap="round" stroke-linejoin="round"/>
  <path d="M9.2002 9.7002C11.6855 9.7002 13.7002 7.68548 13.7002 5.2002C13.7002 2.71491 11.6855 0.700195 9.2002 0.700195C6.71491 0.700195 4.7002 2.71491 4.7002 5.2002C4.7002 7.68548 6.71491 9.7002 9.2002 9.7002Z" fill="currentColor" stroke="currentColor" stroke-width="1.4" stroke-linecap="round" stroke-linejoin="round"/>
</svg>
